{
  "asset": {
    "version": "2.0",
    "generator": "Sketchup glTF Exporter v1.2.6 by Centaur"
  },
  "scene": 0,
  "scenes": [
    {
      "nodes": [
        0
      ]
    }
  ],
  "samplers": [
    {
    }
  ],
  "nodes": [
    {
      "name": "root",
      "children": [
        1
      ]
    },
    {
      "name": "vm_v4_005_1",
      "children": [
        2,
        3,
        4,
        5,
        6,
        7
      ]
    },
    {
      "name": "3DGeom~110_Defintion",
      "mesh": 0
    },
    {
      "name": "3DGeom~111_Defintion",
      "mesh": 1
    },
    {
      "name": "3DGeom~112_Defintion",
      "mesh": 2
    },
    {
      "name": "3DGeom~113_Defintion",
      "mesh": 3
    },
    {
      "name": "3DGeom~114_Defintion",
      "mesh": 4
    },
    {
      "name": "3DGeom~115_Defintion",
      "mesh": 5
    }
  ],
  "materials": [
    {
      "pbrMetallicRoughness": {
        "baseColorFactor": [
          0.006,
          0.006,
          0.1636,
          1.0
        ],
        "metallicFactor": 0.1,
        "roughnessFactor": 0.9
      },
      "name": "0107_MidnightBlue",
      "doubleSided": true
    },
    {
      "pbrMetallicRoughness": {
        "baseColorTexture": {
          "index": 0
        },
        "metallicFactor": 0.1,
        "roughnessFactor": 0.9
      },
      "name": "fabric_navy1",
      "doubleSided": true
    },
    {
      "pbrMetallicRoughness": {
        "baseColorFactor": [
          0.0,
          0.1275,
          0.0,
          1.0
        ],
        "metallicFactor": 0.1,
        "roughnessFactor": 0.9
      },
      "name": "0077_DarkGreen",
      "doubleSided": true
    },
    {
      "pbrMetallicRoughness": {
        "baseColorTexture": {
          "index": 1
        },
        "metallicFactor": 0.1,
        "roughnessFactor": 0.9
      },
      "name": "hanger_wood1",
      "doubleSided": true
    },
    {
      "pbrMetallicRoughness": {
        "baseColorTexture": {
          "index": 2
        },
        "metallicFactor": 0.1,
        "roughnessFactor": 0.9
      },
      "name": "hanger_size_M1",
      "doubleSided": true
    },
    {
      "pbrMetallicRoughness": {
        "baseColorFactor": [
          0.1636,
          0.1636,
          0.1636,
          1.0
        ],
        "metallicFactor": 0.1,
        "roughnessFactor": 0.9
      },
      "name": "button1"
    },
    {
      "pbrMetallicRoughness": {
        "baseColorFactor": [
          0.212,
          0.212,
          0.212,
          1.0
        ],
        "roughnessFactor": 0.1
      },
      "name": "hanger_black_metal1",
      "doubleSided": true
    },
    {
      "pbrMetallicRoughness": {
        "baseColorFactor": [
          0.0,
          0.0,
          0.0,
          1.0
        ],
        "metallicFactor": 0.1,
        "roughnessFactor": 0.9
      },
      "name": "hanger_chrome1"
    }
  ],
  "images": [
    {
      "bufferView": 0,
      "mimeType": "image/jpeg"
    },
    {
      "bufferView": 1,
      "mimeType": "image/jpeg"
    },
    {
      "bufferView": 2,
      "mimeType": "image/jpeg"
    }
  ],
  "textures": [
    {
      "source": 0,
      "sampler": 0
    },
    {
      "source": 1,
      "sampler": 0
    },
    {
      "source": 2,
      "sampler": 0
    }
  ],
  "meshes": [
    {
      "primitives": [
        {
          "attributes": {
            "POSITION": 0,
            "NORMAL": 1
          },
          "indices": 5,
          "mode": 4,
          "material": 0
        },
        {
          "attributes": {
            "POSITION": 2,
            "NORMAL": 3,
            "TEXCOORD_0": 4
          },
          "indices": 6,
          "mode": 4,
          "material": 1
        },
        {
          "attributes": {
            "POSITION": 0,
            "NORMAL": 1
          },
          "indices": 7,
          "mode": 4,
          "material": 2
        }
      ]
    },
    {
      "primitives": [
        {
          "attributes": {
            "POSITION": 2,
            "NORMAL": 3,
            "TEXCOORD_0": 4
          },
          "indices": 8,
          "mode": 4,
          "material": 3
        }
      ]
    },
    {
      "primitives": [
        {
          "attributes": {
            "POSITION": 2,
            "NORMAL": 3,
            "TEXCOORD_0": 4
          },
          "indices": 9,
          "mode": 4,
          "material": 4
        }
      ]
    },
    {
      "primitives": [
        {
          "attributes": {
            "POSITION": 0,
            "NORMAL": 1
          },
          "indices": 10,
          "mode": 4,
          "material": 5
        }
      ]
    },
    {
      "primitives": [
        {
          "attributes": {
            "POSITION": 0,
            "NORMAL": 1
          },
          "indices": 11,
          "mode": 4,
          "material": 6
        }
      ]
    },
    {
      "primitives": [
        {
          "attributes": {
            "POSITION": 0,
            "NORMAL": 1
          },
          "indices": 12,
          "mode": 4,
          "material": 7
        }
      ]
    }
  ],
  "accessors": [
    {
      "bufferView": 3,
      "componentType": 5126,
      "count": 2943,
      "type": "VEC3",
      "min": [
        -2.220446049250313e-16,
        0.0,
        -0.3463486835283266
      ],
      "max": [
        0.7010399999999943,
        0.874424310557967,
        5.551115123125783e-17
      ]
    },
    {
      "bufferView": 4,
      "componentType": 5126,
      "count": 2943,
      "type": "VEC3",
      "min": [
        -0.9998266562726617,
        -0.9998885001695833,
        -0.9996634342330581
      ],
      "max": [
        0.9999300697925292,
        0.9998885001695833,
        0.9999252793315279
      ]
    },
    {
      "bufferView": 5,
      "componentType": 5126,
      "count": 602,
      "type": "VEC3",
      "min": [
        0.06944383903334345,
        0.015291803490559086,
        -0.28043698343621404
      ],
      "max": [
        0.6821856760314735,
        0.7966245728279022,
        -0.0804822228550274
      ]
    },
    {
      "bufferView": 6,
      "componentType": 5126,
      "count": 602,
      "type": "VEC3",
      "min": [
        -0.9309183905458875,
        -0.9999869608273048,
        -0.9999758999637344
      ],
      "max": [
        0.8848216599031136,
        0.999998149442313,
        0.9989486925637805
      ]
    },
    {
      "bufferView": 7,
      "componentType": 5126,
      "count": 602,
      "type": "VEC2",
      "min": [
        -0.0275390744209294,
        0.15750348567962624
      ],
      "max": [
        1.026561863253966,
        0.9917449997738024
      ]
    },
    {
      "bufferView": 8,
      "componentType": 5123,
      "count": 11709,
      "type": "SCALAR"
    },
    {
      "bufferView": 9,
      "componentType": 5123,
      "count": 75,
      "type": "SCALAR"
    },
    {
      "bufferView": 8,
      "componentType": 5123,
      "count": 60,
      "type": "SCALAR",
      "byteOffset": 23418
    },
    {
      "bufferView": 9,
      "componentType": 5123,
      "count": 486,
      "type": "SCALAR",
      "byteOffset": 150
    },
    {
      "bufferView": 9,
      "componentType": 5123,
      "count": 54,
      "type": "SCALAR",
      "byteOffset": 1122
    },
    {
      "bufferView": 8,
      "componentType": 5123,
      "count": 240,
      "type": "SCALAR",
      "byteOffset": 23538
    },
    {
      "bufferView": 8,
      "componentType": 5123,
      "count": 36,
      "type": "SCALAR",
      "byteOffset": 24018
    },
    {
      "bufferView": 8,
      "componentType": 5123,
      "count": 54,
      "type": "SCALAR",
      "byteOffset": 24090
    }
  ],
  "bufferViews": [
    {
      "buffer": 0,
      "byteLength": 1358091
    },
    {
      "buffer": 0,
      "byteOffset": 1358091,
      "byteLength": 200901
    },
    {
      "buffer": 0,
      "byteOffset": 1558992,
      "byteLength": 27117
    },
    {
      "buffer": 0,
      "byteOffset": 1586112,
      "byteLength": 35316,
      "target": 34962,
      "byteStride": 12
    },
    {
      "buffer": 0,
      "byteOffset": 1621428,
      "byteLength": 35316,
      "target": 34962,
      "byteStride": 12
    },
    {
      "buffer": 0,
      "byteOffset": 1656744,
      "byteLength": 7224,
      "target": 34962,
      "byteStride": 12
    },
    {
      "buffer": 0,
      "byteOffset": 1663968,
      "byteLength": 7224,
      "target": 34962,
      "byteStride": 12
    },
    {
      "buffer": 0,
      "byteOffset": 1671192,
      "byteLength": 4816,
      "target": 34962,
      "byteStride": 8
    },
    {
      "buffer": 0,
      "byteOffset": 1676008,
      "byteLength": 24198,
      "target": 34963
    },
    {
      "buffer": 0,
      "byteOffset": 1700206,
      "byteLength": 1230,
      "target": 34963
    }
  ],
  "buffers": [
    {
      "uri": "data:application/octet-stream;base64,",
      "byteLength": 1701436
    }
  ]
}